<svg xmlns="http://www.w3.org/2000/svg" viewBox="0 0 80 80">
    <defs>
        <style>.cls-1{fill:#212121;}</style>
    </defs>
    <path class="cls-1"
          d="M52,53.3a1.54,1.54,0,0,1-1.06,1.78,27,27,0,0,1-7.51,1c-12.56,0-18.18-7.23-18.18-15.55,0-10.77,8.47-16.57,18.64-16.57a25.85,25.85,0,0,1,7.53,1,1.53,1.53,0,0,1,1,1.87l-1,3.79a1.54,1.54,0,0,1-1.94,1.08,18.38,18.38,0,0,0-5.25-.75c-5.2,0-9.8,2.8-9.8,9,0,5.33,3.63,9.06,10,9.06a22.26,22.26,0,0,0,4.91-.57,1.55,1.55,0,0,1,1.91,1.19Z"/>
    <path class="cls-1"
          d="M68.45,35A1.54,1.54,0,0,0,70,33.45V11.55A1.54,1.54,0,0,0,68.45,10H11.55A1.54,1.54,0,0,0,10,11.55v21.9A1.54,1.54,0,0,0,11.55,35h6.9A1.54,1.54,0,0,0,20,33.45V21.55A1.54,1.54,0,0,1,21.55,20h36.9A1.54,1.54,0,0,1,60,21.55v11.9A1.54,1.54,0,0,0,61.55,35Z"/>
    <path class="cls-1"
          d="M70,60V46.55A1.54,1.54,0,0,0,68.45,45h-6.9A1.54,1.54,0,0,0,60,46.55v11.9A1.54,1.54,0,0,1,58.45,60H21.55A1.54,1.54,0,0,1,20,58.45V46.55A1.54,1.54,0,0,0,18.45,45h-6.9A1.54,1.54,0,0,0,10,46.55v21.9A1.54,1.54,0,0,0,11.55,70h56.9A1.54,1.54,0,0,0,70,68.45Z"/>
</svg>
